<mxfile host="Electron" modified="2025-06-18T18:23:21.158Z" agent="Mozilla/5.0 (Windows NT 10.0; Win64; x64) AppleWebKit/537.36 (KHTML, like Gecko) draw.io/22.1.16 Chrome/120.0.6099.109 Electron/28.1.0 Safari/537.36" etag="oCit4Oq3OXJdqMrNpi7q" version="22.1.16" type="device">
  <diagram name="Page-1" id="kRXlcnjOKhpUsL4Fh3EX">
    <mxGraphModel dx="1671" dy="967" grid="1" gridSize="10" guides="1" tooltips="1" connect="1" arrows="1" fold="1" page="1" pageScale="1" pageWidth="1169" pageHeight="827" math="0" shadow="0">
      <root>
        <mxCell id="0" />
        <mxCell id="1" parent="0" />
        <mxCell id="8iRjPpZxa0u304oTrsnf-3" style="edgeStyle=orthogonalEdgeStyle;rounded=0;orthogonalLoop=1;jettySize=auto;html=1;exitX=1;exitY=0.5;exitDx=0;exitDy=0;entryX=0;entryY=0.5;entryDx=0;entryDy=0;strokeWidth=4;fillColor=#fa6800;strokeColor=#C73500;" edge="1" parent="1" source="8iRjPpZxa0u304oTrsnf-1" target="8iRjPpZxa0u304oTrsnf-2">
          <mxGeometry relative="1" as="geometry" />
        </mxCell>
        <mxCell id="8iRjPpZxa0u304oTrsnf-1" value="&lt;b&gt;SIGNAL AQUSITION USING DAQmx&lt;/b&gt;" style="rounded=1;whiteSpace=wrap;html=1;strokeWidth=3;fillColor=#fa6800;fontColor=#000000;strokeColor=#C73500;" vertex="1" parent="1">
          <mxGeometry x="40" y="40" width="120" height="60" as="geometry" />
        </mxCell>
        <mxCell id="8iRjPpZxa0u304oTrsnf-5" style="edgeStyle=orthogonalEdgeStyle;rounded=0;orthogonalLoop=1;jettySize=auto;html=1;exitX=1;exitY=0.5;exitDx=0;exitDy=0;entryX=0;entryY=0.5;entryDx=0;entryDy=0;strokeWidth=4;fillColor=#fa6800;strokeColor=#C73500;" edge="1" parent="1" source="8iRjPpZxa0u304oTrsnf-2" target="8iRjPpZxa0u304oTrsnf-4">
          <mxGeometry relative="1" as="geometry">
            <Array as="points">
              <mxPoint x="440" y="70" />
              <mxPoint x="440" y="70" />
            </Array>
          </mxGeometry>
        </mxCell>
        <mxCell id="8iRjPpZxa0u304oTrsnf-2" value="&lt;b&gt;TAKE SAMPLE&lt;/b&gt;" style="shape=hexagon;perimeter=hexagonPerimeter2;whiteSpace=wrap;html=1;fixedSize=1;strokeWidth=3;fillColor=#fa6800;fontColor=#000000;strokeColor=#C73500;" vertex="1" parent="1">
          <mxGeometry x="210" y="45" width="110" height="50" as="geometry" />
        </mxCell>
        <mxCell id="8iRjPpZxa0u304oTrsnf-7" style="edgeStyle=orthogonalEdgeStyle;rounded=0;orthogonalLoop=1;jettySize=auto;html=1;entryX=0;entryY=0.5;entryDx=0;entryDy=0;strokeWidth=4;fillColor=#fa6800;strokeColor=#C73500;" edge="1" parent="1" source="8iRjPpZxa0u304oTrsnf-4" target="8iRjPpZxa0u304oTrsnf-6">
          <mxGeometry relative="1" as="geometry" />
        </mxCell>
        <mxCell id="8iRjPpZxa0u304oTrsnf-9" value="&lt;b&gt;FIRST &amp;amp; LAST POINT&lt;/b&gt;" style="edgeLabel;html=1;align=center;verticalAlign=middle;resizable=0;points=[];labelBackgroundColor=#000000;" vertex="1" connectable="0" parent="8iRjPpZxa0u304oTrsnf-7">
          <mxGeometry x="-0.15" y="-3" relative="1" as="geometry">
            <mxPoint as="offset" />
          </mxGeometry>
        </mxCell>
        <mxCell id="8iRjPpZxa0u304oTrsnf-4" value="&lt;b&gt;CALCUATE SIGNAL&lt;br&gt;PERIOD LENGTH&lt;br&gt;&lt;/b&gt;" style="rounded=1;whiteSpace=wrap;html=1;strokeWidth=3;fillColor=#fa6800;fontColor=#000000;strokeColor=#C73500;" vertex="1" parent="1">
          <mxGeometry x="550" y="40" width="120" height="60" as="geometry" />
        </mxCell>
        <mxCell id="8iRjPpZxa0u304oTrsnf-11" style="edgeStyle=orthogonalEdgeStyle;rounded=0;orthogonalLoop=1;jettySize=auto;html=1;strokeWidth=4;fillColor=#60a917;strokeColor=#2D7600;" edge="1" parent="1" source="8iRjPpZxa0u304oTrsnf-6">
          <mxGeometry relative="1" as="geometry">
            <mxPoint x="1040" y="70" as="targetPoint" />
          </mxGeometry>
        </mxCell>
        <mxCell id="8iRjPpZxa0u304oTrsnf-6" value="&lt;b&gt;BUILD&lt;br&gt;WAVEFROM&lt;/b&gt;" style="whiteSpace=wrap;html=1;aspect=fixed;strokeWidth=4;fillColor=#fa6800;fontColor=#000000;strokeColor=#C73500;" vertex="1" parent="1">
          <mxGeometry x="910" y="30" width="80" height="80" as="geometry" />
        </mxCell>
        <mxCell id="8iRjPpZxa0u304oTrsnf-8" value="" style="endArrow=classic;html=1;rounded=0;entryX=0;entryY=0;entryDx=0;entryDy=0;strokeWidth=3;fillColor=#fa6800;strokeColor=#C73500;" edge="1" parent="1" target="8iRjPpZxa0u304oTrsnf-6">
          <mxGeometry width="50" height="50" relative="1" as="geometry">
            <mxPoint x="410" y="70" as="sourcePoint" />
            <mxPoint x="700" y="160" as="targetPoint" />
            <Array as="points">
              <mxPoint x="410" y="30" />
            </Array>
          </mxGeometry>
        </mxCell>
        <mxCell id="8iRjPpZxa0u304oTrsnf-10" value="&lt;b&gt;DISPLAY&lt;br&gt;SIGNAL&lt;/b&gt;" style="shape=parallelogram;perimeter=parallelogramPerimeter;whiteSpace=wrap;html=1;fixedSize=1;strokeWidth=3;fillColor=#0050ef;fontColor=#ffffff;strokeColor=#001DBC;" vertex="1" parent="1">
          <mxGeometry x="1030" y="40" width="120" height="60" as="geometry" />
        </mxCell>
        <mxCell id="8iRjPpZxa0u304oTrsnf-12" value="" style="curved=1;endArrow=classic;html=1;rounded=0;exitX=0.5;exitY=1;exitDx=0;exitDy=0;strokeWidth=4;entryX=0;entryY=0;entryDx=0;entryDy=0;fillColor=#fa6800;strokeColor=#C73500;" edge="1" parent="1" source="8iRjPpZxa0u304oTrsnf-4" target="8iRjPpZxa0u304oTrsnf-15">
          <mxGeometry width="50" height="50" relative="1" as="geometry">
            <mxPoint x="450" y="90" as="sourcePoint" />
            <mxPoint x="40" y="180" as="targetPoint" />
            <Array as="points">
              <mxPoint x="640" y="140" />
              <mxPoint x="280" y="130" />
              <mxPoint x="170" y="140" />
            </Array>
          </mxGeometry>
        </mxCell>
        <mxCell id="8iRjPpZxa0u304oTrsnf-13" value="&lt;b&gt;PERIOD&amp;nbsp;&lt;/b&gt;" style="text;html=1;align=center;verticalAlign=middle;resizable=0;points=[];autosize=1;strokeColor=none;fillColor=none;labelBackgroundColor=#000000;fontColor=#FCF5F5;" vertex="1" parent="1">
          <mxGeometry x="380" y="100" width="70" height="30" as="geometry" />
        </mxCell>
        <mxCell id="8iRjPpZxa0u304oTrsnf-16" style="edgeStyle=orthogonalEdgeStyle;rounded=0;orthogonalLoop=1;jettySize=auto;html=1;exitX=0.5;exitY=0;exitDx=0;exitDy=0;entryX=0;entryY=0.5;entryDx=0;entryDy=0;strokeWidth=3;fillColor=#a20025;strokeColor=#6F0000;" edge="1" parent="1" source="8iRjPpZxa0u304oTrsnf-14" target="8iRjPpZxa0u304oTrsnf-15">
          <mxGeometry relative="1" as="geometry" />
        </mxCell>
        <mxCell id="8iRjPpZxa0u304oTrsnf-17" value="YES ?" style="edgeLabel;html=1;align=center;verticalAlign=middle;resizable=0;points=[];fontStyle=1;labelBackgroundColor=#000000;fontColor=#FCF5F5;" vertex="1" connectable="0" parent="8iRjPpZxa0u304oTrsnf-16">
          <mxGeometry x="-0.197" relative="1" as="geometry">
            <mxPoint as="offset" />
          </mxGeometry>
        </mxCell>
        <mxCell id="8iRjPpZxa0u304oTrsnf-14" value="&lt;b&gt;EN RX&lt;/b&gt;" style="rhombus;whiteSpace=wrap;html=1;strokeWidth=3;fillColor=#008a00;fontColor=#ffffff;strokeColor=#005700;" vertex="1" parent="1">
          <mxGeometry x="110" y="280" width="80" height="80" as="geometry" />
        </mxCell>
        <mxCell id="8iRjPpZxa0u304oTrsnf-25" style="edgeStyle=orthogonalEdgeStyle;rounded=0;orthogonalLoop=1;jettySize=auto;html=1;entryX=0;entryY=0.5;entryDx=0;entryDy=0;strokeWidth=4;fillColor=#fa6800;strokeColor=#C73500;" edge="1" parent="1" source="8iRjPpZxa0u304oTrsnf-15" target="8iRjPpZxa0u304oTrsnf-24">
          <mxGeometry relative="1" as="geometry" />
        </mxCell>
        <mxCell id="8iRjPpZxa0u304oTrsnf-15" value="&lt;b&gt;READ BUFFER&lt;/b&gt;" style="shape=process;whiteSpace=wrap;html=1;backgroundOutline=1;strokeWidth=3;fillColor=#76608a;fontColor=#ffffff;strokeColor=#432D57;" vertex="1" parent="1">
          <mxGeometry x="210" y="200" width="280" height="60" as="geometry" />
        </mxCell>
        <mxCell id="8iRjPpZxa0u304oTrsnf-19" style="edgeStyle=orthogonalEdgeStyle;rounded=0;orthogonalLoop=1;jettySize=auto;html=1;exitX=0;exitY=0.5;exitDx=0;exitDy=0;entryX=1;entryY=0.5;entryDx=0;entryDy=0;strokeWidth=3;fillColor=#a20025;strokeColor=#6F0000;" edge="1" parent="1" source="8iRjPpZxa0u304oTrsnf-18" target="8iRjPpZxa0u304oTrsnf-15">
          <mxGeometry relative="1" as="geometry">
            <mxPoint x="600" y="230" as="targetPoint" />
          </mxGeometry>
        </mxCell>
        <mxCell id="8iRjPpZxa0u304oTrsnf-23" value="RESET BUFFER" style="edgeLabel;html=1;align=center;verticalAlign=middle;resizable=0;points=[];fontStyle=1;labelBackgroundColor=#000000;fontColor=#FCF5F5;" vertex="1" connectable="0" parent="8iRjPpZxa0u304oTrsnf-19">
          <mxGeometry x="-0.0561" y="-1" relative="1" as="geometry">
            <mxPoint as="offset" />
          </mxGeometry>
        </mxCell>
        <mxCell id="8iRjPpZxa0u304oTrsnf-18" value="&lt;b&gt;BUFF SIZE&lt;br&gt;&amp;gt;= 500&lt;/b&gt;" style="rhombus;whiteSpace=wrap;html=1;strokeWidth=3;fillColor=#008a00;fontColor=#ffffff;strokeColor=#005700;" vertex="1" parent="1">
          <mxGeometry x="710" y="190" width="110" height="80" as="geometry" />
        </mxCell>
        <mxCell id="8iRjPpZxa0u304oTrsnf-27" style="edgeStyle=orthogonalEdgeStyle;rounded=0;orthogonalLoop=1;jettySize=auto;html=1;entryX=0;entryY=0.5;entryDx=0;entryDy=0;strokeWidth=3;fillColor=#fa6800;strokeColor=#C73500;" edge="1" parent="1" source="8iRjPpZxa0u304oTrsnf-24" target="8iRjPpZxa0u304oTrsnf-26">
          <mxGeometry relative="1" as="geometry" />
        </mxCell>
        <mxCell id="8iRjPpZxa0u304oTrsnf-36" style="edgeStyle=orthogonalEdgeStyle;rounded=0;orthogonalLoop=1;jettySize=auto;html=1;exitX=1;exitY=0.5;exitDx=0;exitDy=0;entryX=0;entryY=0.5;entryDx=0;entryDy=0;strokeWidth=3;fillColor=#fa6800;strokeColor=#C73500;" edge="1" parent="1" source="8iRjPpZxa0u304oTrsnf-24" target="8iRjPpZxa0u304oTrsnf-35">
          <mxGeometry relative="1" as="geometry" />
        </mxCell>
        <mxCell id="8iRjPpZxa0u304oTrsnf-24" value="&lt;b&gt;INTERMIDIATE BUFFER&lt;/b&gt;" style="shape=process;whiteSpace=wrap;html=1;backgroundOutline=1;strokeWidth=4;fillColor=#76608a;fontColor=#ffffff;strokeColor=#432D57;" vertex="1" parent="1">
          <mxGeometry x="470" y="310" width="190" height="60" as="geometry" />
        </mxCell>
        <mxCell id="8iRjPpZxa0u304oTrsnf-28" style="edgeStyle=orthogonalEdgeStyle;rounded=0;orthogonalLoop=1;jettySize=auto;html=1;strokeWidth=3;fillColor=#fa6800;strokeColor=#C73500;" edge="1" parent="1" source="8iRjPpZxa0u304oTrsnf-26">
          <mxGeometry relative="1" as="geometry">
            <mxPoint x="920" y="340" as="targetPoint" />
          </mxGeometry>
        </mxCell>
        <mxCell id="8iRjPpZxa0u304oTrsnf-29" value="&lt;b&gt;YES ?&lt;/b&gt;" style="edgeLabel;html=1;align=center;verticalAlign=middle;resizable=0;points=[];labelBackgroundColor=#000000;fontColor=#FCF5F5;" vertex="1" connectable="0" parent="8iRjPpZxa0u304oTrsnf-28">
          <mxGeometry x="-0.3099" y="-1" relative="1" as="geometry">
            <mxPoint as="offset" />
          </mxGeometry>
        </mxCell>
        <mxCell id="8iRjPpZxa0u304oTrsnf-26" value="&lt;b&gt;FIRST EL&lt;br&gt;!= 0&lt;/b&gt;" style="rhombus;whiteSpace=wrap;html=1;strokeWidth=3;fillColor=#008a00;fontColor=#ffffff;strokeColor=#005700;" vertex="1" parent="1">
          <mxGeometry x="740" y="300" width="90" height="80" as="geometry" />
        </mxCell>
        <mxCell id="8iRjPpZxa0u304oTrsnf-32" style="edgeStyle=orthogonalEdgeStyle;rounded=0;orthogonalLoop=1;jettySize=auto;html=1;strokeWidth=3;entryX=0;entryY=0.5;entryDx=0;entryDy=0;fillColor=#fa6800;strokeColor=#C73500;" edge="1" parent="1" source="8iRjPpZxa0u304oTrsnf-30" target="8iRjPpZxa0u304oTrsnf-33">
          <mxGeometry relative="1" as="geometry">
            <mxPoint x="130" y="450" as="targetPoint" />
            <Array as="points">
              <mxPoint x="1044" y="340" />
              <mxPoint x="1044" y="400" />
              <mxPoint x="80" y="400" />
              <mxPoint x="80" y="450" />
            </Array>
          </mxGeometry>
        </mxCell>
        <mxCell id="8iRjPpZxa0u304oTrsnf-30" value="&lt;b&gt;STRAT RX&lt;/b&gt;" style="shape=step;perimeter=stepPerimeter;whiteSpace=wrap;html=1;fixedSize=1;strokeWidth=3;fillColor=#f0a30a;fontColor=#000000;strokeColor=#BD7000;" vertex="1" parent="1">
          <mxGeometry x="900" y="300" width="120" height="80" as="geometry" />
        </mxCell>
        <mxCell id="8iRjPpZxa0u304oTrsnf-64" style="edgeStyle=orthogonalEdgeStyle;rounded=0;orthogonalLoop=1;jettySize=auto;html=1;entryX=0;entryY=0.25;entryDx=0;entryDy=0;strokeWidth=3;fillColor=#60a917;strokeColor=#2D7600;" edge="1" parent="1" source="8iRjPpZxa0u304oTrsnf-31" target="8iRjPpZxa0u304oTrsnf-62">
          <mxGeometry relative="1" as="geometry">
            <Array as="points">
              <mxPoint x="900" y="420" />
              <mxPoint x="900" y="432" />
            </Array>
          </mxGeometry>
        </mxCell>
        <mxCell id="8iRjPpZxa0u304oTrsnf-31" value="&lt;b&gt;MESSAGE ARRAY&lt;/b&gt;" style="shape=process;whiteSpace=wrap;html=1;backgroundOutline=1;strokeWidth=3;fillColor=#76608a;strokeColor=#432D57;fontColor=#ffffff;" vertex="1" parent="1">
          <mxGeometry x="455" y="420" width="205" height="60" as="geometry" />
        </mxCell>
        <mxCell id="8iRjPpZxa0u304oTrsnf-34" style="edgeStyle=orthogonalEdgeStyle;rounded=0;orthogonalLoop=1;jettySize=auto;html=1;exitX=1;exitY=0.5;exitDx=0;exitDy=0;entryX=0;entryY=0.5;entryDx=0;entryDy=0;strokeWidth=3;fillColor=#fa6800;strokeColor=#C73500;" edge="1" parent="1" source="8iRjPpZxa0u304oTrsnf-33" target="8iRjPpZxa0u304oTrsnf-31">
          <mxGeometry relative="1" as="geometry" />
        </mxCell>
        <mxCell id="8iRjPpZxa0u304oTrsnf-43" value="YES ?" style="edgeLabel;html=1;align=center;verticalAlign=middle;resizable=0;points=[];fontStyle=1;labelBackgroundColor=#000000;fontColor=#FCF5F5;" vertex="1" connectable="0" parent="8iRjPpZxa0u304oTrsnf-34">
          <mxGeometry x="0.3561" relative="1" as="geometry">
            <mxPoint as="offset" />
          </mxGeometry>
        </mxCell>
        <mxCell id="8iRjPpZxa0u304oTrsnf-33" value="&lt;b&gt;RX ON?&lt;br&gt;&lt;/b&gt;" style="rhombus;whiteSpace=wrap;html=1;strokeWidth=3;fillColor=#008a00;fontColor=#ffffff;strokeColor=#005700;" vertex="1" parent="1">
          <mxGeometry x="170" y="410" width="80" height="80" as="geometry" />
        </mxCell>
        <mxCell id="8iRjPpZxa0u304oTrsnf-37" style="edgeStyle=orthogonalEdgeStyle;rounded=0;orthogonalLoop=1;jettySize=auto;html=1;strokeWidth=3;entryX=1.018;entryY=0.416;entryDx=0;entryDy=0;entryPerimeter=0;fillColor=#fa6800;strokeColor=#C73500;" edge="1" parent="1" source="8iRjPpZxa0u304oTrsnf-35" target="8iRjPpZxa0u304oTrsnf-39">
          <mxGeometry relative="1" as="geometry">
            <mxPoint x="610" y="510" as="targetPoint" />
            <Array as="points">
              <mxPoint x="890" y="460" />
              <mxPoint x="890" y="509" />
            </Array>
          </mxGeometry>
        </mxCell>
        <mxCell id="8iRjPpZxa0u304oTrsnf-38" value="YES?" style="edgeLabel;html=1;align=center;verticalAlign=middle;resizable=0;points=[];fontStyle=1;labelBackgroundColor=#000000;fontColor=#FCF5F5;" vertex="1" connectable="0" parent="8iRjPpZxa0u304oTrsnf-37">
          <mxGeometry x="0.4538" y="-1" relative="1" as="geometry">
            <mxPoint as="offset" />
          </mxGeometry>
        </mxCell>
        <mxCell id="8iRjPpZxa0u304oTrsnf-35" value="&lt;b&gt;BUFF EL&lt;br&gt;= 0 ?&lt;br&gt;&lt;/b&gt;" style="rhombus;whiteSpace=wrap;html=1;strokeWidth=3;fillColor=#008a00;fontColor=#ffffff;strokeColor=#005700;" vertex="1" parent="1">
          <mxGeometry x="750" y="430" width="100" height="70" as="geometry" />
        </mxCell>
        <mxCell id="8iRjPpZxa0u304oTrsnf-40" style="edgeStyle=orthogonalEdgeStyle;rounded=0;orthogonalLoop=1;jettySize=auto;html=1;endSize=8;strokeWidth=3;fillColor=#a20025;strokeColor=#6F0000;" edge="1" parent="1" source="8iRjPpZxa0u304oTrsnf-39">
          <mxGeometry relative="1" as="geometry">
            <mxPoint x="100" y="450" as="targetPoint" />
          </mxGeometry>
        </mxCell>
        <mxCell id="8iRjPpZxa0u304oTrsnf-47" style="edgeStyle=orthogonalEdgeStyle;rounded=0;orthogonalLoop=1;jettySize=auto;html=1;entryX=0.5;entryY=0;entryDx=0;entryDy=0;strokeWidth=4;fillColor=#fa6800;strokeColor=#C73500;" edge="1" parent="1" source="8iRjPpZxa0u304oTrsnf-39" target="8iRjPpZxa0u304oTrsnf-46">
          <mxGeometry relative="1" as="geometry">
            <Array as="points">
              <mxPoint x="170" y="540" />
            </Array>
          </mxGeometry>
        </mxCell>
        <mxCell id="8iRjPpZxa0u304oTrsnf-39" value="&lt;b&gt;&lt;font color=&quot;#ff0000&quot;&gt;STOP TX&lt;/font&gt;&lt;/b&gt;" style="shape=tape;whiteSpace=wrap;html=1;strokeWidth=4;fillColor=#f8cecc;gradientColor=#ea6b66;strokeColor=#b85450;" vertex="1" parent="1">
          <mxGeometry x="290" y="480" width="120" height="70" as="geometry" />
        </mxCell>
        <mxCell id="8iRjPpZxa0u304oTrsnf-44" value="" style="endArrow=none;html=1;rounded=0;strokeWidth=5;fillColor=#e51400;strokeColor=#B20000;" edge="1" parent="1">
          <mxGeometry width="50" height="50" relative="1" as="geometry">
            <mxPoint x="110" y="460" as="sourcePoint" />
            <mxPoint x="90" y="440" as="targetPoint" />
            <Array as="points" />
          </mxGeometry>
        </mxCell>
        <mxCell id="8iRjPpZxa0u304oTrsnf-45" value="" style="endArrow=none;html=1;rounded=0;strokeWidth=5;fillColor=#e51400;strokeColor=#B20000;" edge="1" parent="1">
          <mxGeometry width="50" height="50" relative="1" as="geometry">
            <mxPoint x="90" y="460" as="sourcePoint" />
            <mxPoint x="110" y="440" as="targetPoint" />
            <Array as="points">
              <mxPoint x="100" y="450" />
            </Array>
          </mxGeometry>
        </mxCell>
        <mxCell id="8iRjPpZxa0u304oTrsnf-48" value="&lt;b&gt;YES ?&lt;/b&gt;" style="edgeStyle=orthogonalEdgeStyle;rounded=0;orthogonalLoop=1;jettySize=auto;html=1;exitX=1;exitY=0.5;exitDx=0;exitDy=0;strokeWidth=3;entryX=0;entryY=0.5;entryDx=0;entryDy=0;fillColor=#1ba1e2;strokeColor=#006EAF;labelBackgroundColor=#000000;fontColor=#FCF5F5;" edge="1" parent="1" source="8iRjPpZxa0u304oTrsnf-46" target="8iRjPpZxa0u304oTrsnf-50">
          <mxGeometry relative="1" as="geometry">
            <mxPoint x="330" y="619.8888888888889" as="targetPoint" />
          </mxGeometry>
        </mxCell>
        <mxCell id="8iRjPpZxa0u304oTrsnf-46" value="&lt;b&gt;RX STOP ?&lt;/b&gt;" style="rhombus;whiteSpace=wrap;html=1;strokeWidth=3;fillColor=#008a00;fontColor=#ffffff;strokeColor=#005700;" vertex="1" parent="1">
          <mxGeometry x="130" y="580" width="80" height="80" as="geometry" />
        </mxCell>
        <mxCell id="8iRjPpZxa0u304oTrsnf-52" style="edgeStyle=orthogonalEdgeStyle;rounded=0;orthogonalLoop=1;jettySize=auto;html=1;entryX=0;entryY=0.5;entryDx=0;entryDy=0;strokeWidth=3;fillColor=#1ba1e2;strokeColor=#006EAF;" edge="1" parent="1" source="8iRjPpZxa0u304oTrsnf-50" target="8iRjPpZxa0u304oTrsnf-51">
          <mxGeometry relative="1" as="geometry" />
        </mxCell>
        <mxCell id="8iRjPpZxa0u304oTrsnf-50" value="&lt;b&gt;1st conv:&lt;br&gt;Tseq -&amp;gt; &quot;-&quot;&lt;br&gt;Fseq -&amp;gt; &quot;.&quot;&lt;br&gt;&lt;/b&gt;" style="rounded=1;whiteSpace=wrap;html=1;strokeWidth=3;fillColor=#6a00ff;fontColor=#ffffff;strokeColor=#3700CC;" vertex="1" parent="1">
          <mxGeometry x="335" y="590" width="120" height="60" as="geometry" />
        </mxCell>
        <mxCell id="8iRjPpZxa0u304oTrsnf-56" style="edgeStyle=orthogonalEdgeStyle;rounded=0;orthogonalLoop=1;jettySize=auto;html=1;exitX=1;exitY=0.5;exitDx=0;exitDy=0;entryX=0;entryY=0.5;entryDx=0;entryDy=0;strokeWidth=3;fillColor=#1ba1e2;strokeColor=#006EAF;" edge="1" parent="1" source="8iRjPpZxa0u304oTrsnf-51" target="8iRjPpZxa0u304oTrsnf-53">
          <mxGeometry relative="1" as="geometry" />
        </mxCell>
        <mxCell id="8iRjPpZxa0u304oTrsnf-51" value="&lt;b&gt;2nd conv:&lt;br&gt;Get &quot;-&quot; length&lt;br&gt;&lt;br&gt;&lt;/b&gt;" style="rounded=1;whiteSpace=wrap;html=1;strokeWidth=3;fillColor=#6a00ff;fontColor=#ffffff;strokeColor=#3700CC;" vertex="1" parent="1">
          <mxGeometry x="505" y="595" width="120" height="50" as="geometry" />
        </mxCell>
        <mxCell id="8iRjPpZxa0u304oTrsnf-71" value="" style="edgeStyle=orthogonalEdgeStyle;rounded=0;orthogonalLoop=1;jettySize=auto;html=1;" edge="1" parent="1" source="8iRjPpZxa0u304oTrsnf-53">
          <mxGeometry relative="1" as="geometry">
            <mxPoint x="869.9999999999998" y="620" as="targetPoint" />
          </mxGeometry>
        </mxCell>
        <mxCell id="8iRjPpZxa0u304oTrsnf-53" value="&lt;b&gt;1st FIltering&lt;br&gt;of relevant data&lt;br&gt;&lt;/b&gt;" style="rounded=1;whiteSpace=wrap;html=1;strokeWidth=3;fillColor=#6a00ff;fontColor=#ffffff;strokeColor=#3700CC;" vertex="1" parent="1">
          <mxGeometry x="670" y="595" width="120" height="50" as="geometry" />
        </mxCell>
        <mxCell id="8iRjPpZxa0u304oTrsnf-60" style="edgeStyle=orthogonalEdgeStyle;rounded=0;orthogonalLoop=1;jettySize=auto;html=1;strokeWidth=3;fillColor=#1ba1e2;strokeColor=#006EAF;" edge="1" parent="1" source="8iRjPpZxa0u304oTrsnf-57" target="8iRjPpZxa0u304oTrsnf-61">
          <mxGeometry relative="1" as="geometry">
            <mxPoint x="90" y="770" as="targetPoint" />
            <Array as="points">
              <mxPoint x="950" y="670" />
              <mxPoint x="80" y="670" />
              <mxPoint x="80" y="732" />
            </Array>
          </mxGeometry>
        </mxCell>
        <mxCell id="8iRjPpZxa0u304oTrsnf-57" value="&lt;b&gt;3rd conv:&lt;br&gt;Convert to &quot;-&quot;&lt;br&gt;or &quot;.&quot; based of calc len of signals&lt;br&gt;&lt;br&gt;&lt;/b&gt;" style="rounded=1;whiteSpace=wrap;html=1;strokeWidth=3;fillColor=#6a00ff;fontColor=#ffffff;strokeColor=#3700CC;" vertex="1" parent="1">
          <mxGeometry x="850" y="582.5" width="200" height="75" as="geometry" />
        </mxCell>
        <mxCell id="8iRjPpZxa0u304oTrsnf-58" style="edgeStyle=orthogonalEdgeStyle;rounded=0;orthogonalLoop=1;jettySize=auto;html=1;exitX=1;exitY=0.5;exitDx=0;exitDy=0;entryX=-0.033;entryY=0.5;entryDx=0;entryDy=0;entryPerimeter=0;strokeWidth=3;fillColor=#1ba1e2;strokeColor=#006EAF;" edge="1" parent="1" source="8iRjPpZxa0u304oTrsnf-53" target="8iRjPpZxa0u304oTrsnf-57">
          <mxGeometry relative="1" as="geometry" />
        </mxCell>
        <mxCell id="8iRjPpZxa0u304oTrsnf-69" style="edgeStyle=orthogonalEdgeStyle;rounded=0;orthogonalLoop=1;jettySize=auto;html=1;entryX=0;entryY=0.5;entryDx=0;entryDy=0;strokeWidth=3;fillColor=#60a917;strokeColor=#2D7600;" edge="1" parent="1" source="8iRjPpZxa0u304oTrsnf-59" target="8iRjPpZxa0u304oTrsnf-68">
          <mxGeometry relative="1" as="geometry" />
        </mxCell>
        <mxCell id="8iRjPpZxa0u304oTrsnf-59" value="&lt;b&gt;CONVERT TO STRING&lt;/b&gt;" style="shape=step;perimeter=stepPerimeter;whiteSpace=wrap;html=1;fixedSize=1;strokeWidth=3;fillColor=#6a00ff;fontColor=#ffffff;strokeColor=#3700CC;" vertex="1" parent="1">
          <mxGeometry x="370" y="710" width="210" height="40" as="geometry" />
        </mxCell>
        <mxCell id="8iRjPpZxa0u304oTrsnf-67" style="edgeStyle=orthogonalEdgeStyle;rounded=0;orthogonalLoop=1;jettySize=auto;html=1;entryX=0;entryY=0.5;entryDx=0;entryDy=0;strokeWidth=3;fillColor=#1ba1e2;strokeColor=#006EAF;" edge="1" parent="1" source="8iRjPpZxa0u304oTrsnf-61" target="8iRjPpZxa0u304oTrsnf-59">
          <mxGeometry relative="1" as="geometry" />
        </mxCell>
        <mxCell id="8iRjPpZxa0u304oTrsnf-61" value="&lt;b&gt;2nd Filtering&lt;br&gt;of relevant data&lt;br&gt;&lt;/b&gt;" style="rounded=1;whiteSpace=wrap;html=1;strokeWidth=3;fillColor=#6a00ff;fontColor=#ffffff;strokeColor=#3700CC;" vertex="1" parent="1">
          <mxGeometry x="140" y="705" width="120" height="50" as="geometry" />
        </mxCell>
        <mxCell id="8iRjPpZxa0u304oTrsnf-62" value="&lt;b&gt;DISPLAY&lt;br&gt;SIGNAL&lt;/b&gt;" style="shape=parallelogram;perimeter=parallelogramPerimeter;whiteSpace=wrap;html=1;fixedSize=1;strokeWidth=3;fillColor=#0050ef;fontColor=#ffffff;strokeColor=#001DBC;" vertex="1" parent="1">
          <mxGeometry x="1020" y="413" width="120" height="60" as="geometry" />
        </mxCell>
        <mxCell id="8iRjPpZxa0u304oTrsnf-68" value="&lt;b&gt;DISPLAY DECODED&amp;nbsp;&lt;br&gt;MESSAGE IN MORSE&lt;br&gt;&lt;/b&gt;" style="shape=parallelogram;perimeter=parallelogramPerimeter;whiteSpace=wrap;html=1;fixedSize=1;strokeWidth=3;fillColor=#0050ef;fontColor=#ffffff;strokeColor=#001DBC;" vertex="1" parent="1">
          <mxGeometry x="720" y="700" width="270" height="60" as="geometry" />
        </mxCell>
      </root>
    </mxGraphModel>
  </diagram>
</mxfile>
